<svg xmlns="http://www.w3.org/2000/svg" viewBox="0 0 1024 1024">
  <title>Smarter Dog</title>
  <rect width="1024" height="1024" fill="#000000"/>
  <g transform="translate(137.1739 102.4) scale(0.8221)">
    <path fill="#ffffff" d="M410.4 995.9 C451.5 994.1 494.6 987.9 552.2 975.2 C579.8 969.2 596.7 964.5 649.8 948.4 C720.6 926.8 722.8 926.4 769.5 926.4 C811.7 926.4 809.5 926.1 846.9 936.3 C887.8 947.4 898.3 944.3 907.5 918.2 C933.2 845.6 841.4 819.8 681.6 854.8 C614.9 869.4 608.9 868.7 615.8 847.2 C621.5 829.5 629.1 818.7 655.3 791.2 C712.3 731.2 719.9 713.7 700.2 687.3 C680.9 661.4 656 655.6 600.8 664.4 C562.3 670.5 555.1 668.7 555.6 653 C556 638.3 558.1 633 574.3 606.2 C617.3 534.9 604.7 508.5 510 470.8 C471.7 455.6 469.5 453.6 468.9 435.2 C467.6 396.4 476.2 388.7 554.8 358.8 C621.2 333.6 636.9 322.3 638.5 298.1 C639.3 286.2 635.8 282.7 612.9 272.9 C577.6 257.9 557.8 237.5 557.6 215.9 C557.4 191.2 575.1 190.5 606.6 214.1 C644.7 242.6 649.8 244.9 675.5 244.9 C709.2 244.9 719.7 230.1 708 198.9 C696.4 167.8 696.5 163.3 709.5 121.9 C732.4 49.2 720.7 25.6 661.9 25.6 C627.7 25.6 615.6 29.5 564.3 57.4 C531.1 75.4 528.9 75.4 478.2 57.7 C429.1 40.5 393.6 38.6 351.1 50.9 C328.6 57.3 278.8 68.9 270.8 69.5 C261.3 70.2 259 68.9 229.3 43.5 C180.5 1.7 170.9 -2.3 126.2 0.9 C114.5 1.7 91 2.4 70.8 2.4 C33.5 2.4 32.9 2.5 26.1 7.4 C12.5 17.3 15 31.2 34.7 56.4 C58.9 87.2 60.7 91.3 63.9 121.4 C66.6 146.5 68.1 149.7 77.9 150.8 C90.2 152.2 95.4 150 104.1 139.7 C125.3 114.5 130.8 109.5 150.7 96.8 C187.4 73.3 202.7 80.7 209.3 125.4 C218.3 185.2 190.2 231.5 132.2 252.3 C104.3 262.4 100.2 265.8 100.2 278.9 C100.1 311.1 130.9 334.6 226.6 375.8 C261.5 390.8 266.2 397.5 267.8 433.4 C269 460.9 261.8 468.2 219.3 482.4 C157.6 503 136 520.9 132.7 554.5 C130.8 572.6 132.4 578 151.1 617.9 C175.8 670.6 173.5 674.3 121.7 665 C34.8 649.5 -11.4 682.1 2.5 749.2 C6.3 767.6 18.4 782.7 50.3 808.7 C98.7 848.2 103 854.3 92.2 867.9 C64 903.2 94.7 932.1 194.8 964.2 C273.2 989.4 338 998.9 410.4 995.9Z"/>
  </g>
</svg>
